<?xml version="1.0" encoding="utf-8"?>

<!DOCTYPE svg PUBLIC "-//W3C//DTD SVG 1.1//EN" "http://www.w3.org/Graphics/SVG/1.1/DTD/svg11.dtd">
<svg version="1.1" id="Layer_1" xmlns="http://www.w3.org/2000/svg" xmlns:xlink="http://www.w3.org/1999/xlink" x="0px" y="0px"
	 viewBox="318.4435 96.8208 1358.1129 1216.3585" enable-background="new 318.4435 96.8208 1358.1129 1216.3585"
	 xml:space="preserve">
<g>
	<path fill="#707070" stroke="#707070" stroke-width="0.5" d="M1066.8196,136.7207c-0.26-6.57,6-12.22,12.4701-11.73
		c184.71,0.04,369.4099,0,554.11,0.02c6.23-0.17,11.98,5.41,11.71,11.7c-0.01,117.37-0.02,234.74,0.01,352.11
		c0.4299,6.33-5.36,12.22-11.6801,11.93c-88.76,0.05-177.5199-0.09-266.2799,0.07c-0.62,0.03-1.87,0.09-2.49,0.12
		c0.1699,80.6,0.0199,161.2,0.0699,241.81c-0.17,23.26,0.35,46.54-0.25,69.8c-0.4401,0.06-1.3199,0.19-1.76,0.25
		c-1.9-0.74-3.78-1.51-5.71-2.1c-0.85-4.94-1.39-9.96-2.88-14.75c-0.8201-2.55-2.79-5.45-5.8401-5.03
		c-4.3999,0.35-8.75,1.27-13.1799,1.14c-0.37-96.97,0.02-193.95-0.1901-290.93c-0.47-0.05-1.4199-0.15-1.8899-0.2
		c-81.88-0.42-163.79-0.06-245.6801-0.18c-3.96-0.12-7.97,0.35-11.88-0.33c-4.74-1.22-8.58-5.77-8.63-10.73
		C1066.8096,372.0407,1066.8696,254.3707,1066.8196,136.7207 M1079.2596,136.9707c-0.49,6.92-0.11,13.85-0.22,20.78
		c0.0699,110.32-0.14,220.65,0.1,330.97c184.6699,0,369.34,0.14,554.01-0.06c-0.11-117.22-0.02-234.44-0.04-351.66
		C1448.4896,136.9907,1263.8696,137.0507,1079.2596,136.9707z"/>
	<path fill="#FFFFFF" stroke="#FFFFFF" stroke-width="0.5" d="M1079.2596,136.9707c184.61,0.08,369.23,0.02,553.85,0.03
		c0.02,117.22-0.0699,234.44,0.04,351.66c-184.67,0.2-369.3401,0.06-554.01,0.06c-0.24-110.32-0.03-220.65-0.1-330.97
		C1079.1497,150.8207,1078.7697,143.8907,1079.2596,136.9707z"/>
	<path fill="#FCC369" stroke="#FCC369" stroke-width="0.5" d="M1333.0397,500.9307c0.47,0.05,1.4199,0.15,1.8899,0.2
		c0.2101,96.98-0.1799,193.9601,0.1901,290.93c4.4299,0.13,8.78-0.79,13.1799-1.14c3.05-0.42,5.02,2.48,5.8401,5.03
		c1.49,4.79,2.03,9.81,2.88,14.75c2.1699,19.8,5.97,39.38,8.4299,59.14c-1.0499-0.19-2.0699-0.39-3.08-0.59
		c1.15-1.41-0.7-2.11-1.55-2.93c-5.96-4.2-9.95-10.5-13.2899-16.85c-6.7201-12.9-11.14-26.81-15.4401-40.65
		c-4.79,3.78-9.13,8.05-13.5699,12.22c2.58,3.23,5.72,5.94,8.49,9.01c1.86,5.24,4.3099,10.24,6.33,15.42
		c-8.63,6.63-9.01,20.21-2.53,28.45c-7.5399,8.31-7.7799,21.41-1.9399,30.72c-2.51,3.99-4.5,8.38-4.77,13.15
		c-13.2,2.13-26.85,1.46-39.78-1.91c-6.7999-1.74-14.1799-5.25-16.85-12.23c-2.34-6.69-3.34-13.87-2.98-20.94
		c0.5-8.84,4.22-17.07,9.29-24.19c-1.3201-3.32-3.7301-6.17-4.4801-9.73c-1.99-8.29-1.6799-17-0.33-25.36
		c1.05-6.89,7.51-10.87,13.08-13.99c15.9-8.25,33.6201-11.91,50.91-16.02c-0.02-2.51-0.01-5.02-0.0399-7.52
		c-0.1201-57.38-0.02-114.77-0.05-172.15C1332.9796,576.1407,1332.6396,538.5308,1333.0397,500.9307z"/>
	<path fill="#C6C6C6" stroke="#C6C6C6" stroke-width="0.5" d="M1364.6697,500.9407c0.62-0.03,1.87-0.09,2.49-0.12
		c-0.1101,101.64-0.02,203.29-0.05,304.94c0,2.37,0.04,4.75,0.13,7.15c-1.58,0.27-3.15,0.6-4.7,0.92l0.1899-1.03
		c0.4401-0.06,1.3199-0.19,1.76-0.25c0.6-23.26,0.08-46.54,0.25-69.8C1364.6896,662.1407,1364.8396,581.5407,1364.6697,500.9407z"/>
	<path fill="#9E4F19" stroke="#9E4F19" stroke-width="0.5" d="M784.9397,530.1807c19.72-5.01,40.09-7.19,60.42-7.19
		c27.39,0.34,54.82,1.34,82.02,4.74c19.97,2.57,39.9399,6.28,58.9199,13.17c15.9701,5.91,31.4,14.24,43.4,26.5099
		c10.7001,10.45,18.29,23.7401,23.2201,37.79c6.9399,19.68,9.46,40.51,12,61.11c2.7999,23.68,5.3099,47.42,9.75,70.86
		c4.0399,21.86,9.4399,43.48,16.71,64.49c3.97,12.41,9.38,24.28,13.63,36.59c2.4299,6.38,4.14,13,6.41,19.43
		c49.7-5.34,99.4099-10.65,149.12-15.98c0.12-7.62-0.1101-15.39,1.95-22.8c2.78-8.22,10.66-13.11,17.95-16.94
		c16.5601-8,34.6001-12.19,52.4801-16.06c0.0299,2.5,0.0199,5.0099,0.0399,7.52c-17.2899,4.11-35.01,7.77-50.91,16.02
		c-5.5699,3.12-12.0299,7.1-13.08,13.99c-1.35,8.36-1.66,17.07,0.33,25.36c0.75,3.56,3.16,6.41,4.4801,9.73
		c-5.0701,7.12-8.79,15.35-9.29,24.19c-0.36,7.07,0.64,14.25,2.98,20.94c2.67,6.98,10.05,10.49,16.85,12.23
		c12.9301,3.37,26.5801,4.04,39.78,1.91c1.03,3.9,3.38,7.4901,7.15,9.2c0.0599,2.6,0.09,5.2,0.11,7.82
		c-4.6-1.71-8.96-4.42-11.54-8.71c-10.45,0.19-20.99,0.4901-31.2899-1.5699c-8.61-1.71-17.62-4.58-23.7201-11.22
		c-3.4199-3.64-4.71-8.55-6.22-13.15c-45.08,4.84-90.1799,9.59-135.25,14.54c10.8301,83.23-5.79,170.17-48.49,242.6
		c-18.9399,32.08-43.0699,61.4099-72.5699,84.33c-26.26,20.42-57.13,35.53-90.1001,40.97c-11.16,1.91-22.5099,2.48-33.8199,2.41
		c-44.08,0.62-88.58-8.96-127.69-29.55c-30.89-16.14-58.16-38.87-80.39-65.6499c-21.93-26.2401-39.18-56.2001-52.17-87.78
		c-18.35-44.61-28.44-92.3301-32.29-140.3201c-0.82-8.89-0.89-17.83-1.68-26.71c-28.9901-18.4-57.58-37.43-86.65-55.7
		c-6.13,7.73-13.61,16.31-24.18,17.01c-12.38,0.81-24.33-3.9-35.23-9.31c-6.06-3-11.77-6.67-17-10.95
		c-5.73-3.64-12.21-5.96-18.5099-8.41c-10.65-2.02-21.45-3.18-32.14-4.97c-12.94-2.2-22.53-16-20.23-28.88
		c0.81-4.82,4.26-8.61,8.16-11.29c-7.05-6.49-9.92-16.87-7.19-26.07c1.71-6.36,6.77-11.18,12.75-13.64
		c-2.36-7.74-2.38-16.53,1.84-23.64c2.55-4.85,7.22-8.17,12.35-9.86c-1.86-7.81-0.45-16.63,5.24-22.56
		c9.78-10.44,28.24-8.72,37.56,1.46c3.83,3.72,7.72,7.38,11.67,10.98c2.36-8.68,9.48-15.57,18.01-18.12
		c5.26-0.66,8.92,3.88,12.11,7.34c10.35,12.35,19.71,25.51,30.46,37.54c5.66,6.67,12.71,11.99,18.41,18.64
		c7.56,8.5,15.1,17.91,17.44,29.33c1.27,5.85-0.37,11.78-3.19,16.93c17.58,11.65,35.44,22.88,53.09,34.44
		c1.98,1.32,4.03,2.55,6.15,3.66c2.9-52.45,10.24-104.99,26.43-155.1c9.68-29.87,22.55-58.85,39.79-85.15
		c16.73-25.59,37.8-48.51,62.87-66.12C735.4997,547.5607,759.6197,536.4907,784.9397,530.1807 M836.3997,536.4608
		c-41.57,0.87-83.15,13.86-116.8,38.52c-22.31,16.11-41.18,36.72-56.34,59.62c-1.2401,2.07-3.5,3.55-4.1801,5.92
		c-2.99,3.79-5.27,8.07-7.7599,12.2c-27.28,46.97-43.06,99.83-51.7,153.22c-7.32,46.16-9.1,93.18-5.39,139.75
		c3.94,48.3701,13.79,96.47,31.48,141.7401c13.6801,34.8099,32.09,68,56.4301,96.5099c11.1299,12.8101,23.06,25.2001,36.83,35.1901
		c11.67,8.9,23.96,17.21,37.01,24.0699c6.49,3.1801,12.81,6.91,19.82,8.91l0.22,0.5701c18.02,7.6899,37.06,12.85,56.4,15.8899
		c5.12,0.5,10.28,2,15.43,1.5801c10.39,1.9299,20.98,1.59,31.5,1.5699c21.17,0.5901,42.38-3.26,62.1801-10.72
		c30.1499-11.45,56.9299-30.72,79.1699-53.92c3.31-3.71,7.44-6.85,9.68-11.39c2.89-1.62,4.8099-4.47,6.95-6.9199
		c14.6801-18.3301,27.38-38.25,37.8201-59.29c39.49-79.38,49.08-173.16,26.33-258.85c-4.45-16.49-10.05-32.66-16.53-48.46
		c-15.7-40.16-24.5699-82.67-29.49-125.41c-3.3099-24.5-4.9-49.31-10.73-73.4c-3.99-16.02-10.47-31.89-21.77-44.19
		c-11.6799-13.06-27.6899-21.27-44.01-27.02c-19.9099-6.71-40.75-10.21-61.6-12.44c-4.9-0.45-9.87-1.4901-14.78-0.66
		c-6.14-1.79-12.6-1-18.87-1.7c-7.44-0.84-14.92-0.44-22.36-0.75C853.0197,536.6508,844.6997,535.5107,836.3997,536.4608
		 M394.6697,727.9807c-9.83,3.06-13.13,17.49-6.26,24.8l0.06,0.67c1.71,0.52,3.35,1.3,4.73,2.5c12.4,10.28,24.93,20.4,37.46,30.54
		c1.81,1.55,4.13,2.82,4.88,5.26c-1.98-1.34-3.78-2.96-5.94-4c-1.43-1.64-3.04-3.11-4.75-4.45c-9.65-7.76-19.29-15.58-29.66-22.38
		c-4.71-3.45-10.67-6.09-16.52-3.96c-8.45,3.25-11.04,14.08-8.09,21.99c1.29,3.55,4.44,6.09,7.55,8.06
		c12.85,7.81,25.69,15.64,38.61,23.34c1.36,0.75,2.59,1.8,3.08,3.36c-1.77-0.65-3.4901-1.4-5.25-2.02
		c-1.83-1.67-3.98-2.92-6.12-4.12c-10.2401-5.94-20.63-11.71-31.53-16.35c-4.74-2.14-10.78-2.3-14.95,1.16
		c-5.98,4.83-5.85,14.41-1.77,20.42c1.52,2.14,3.51,3.98,5.87,5.18c11.84,5.91,23.9,11.42,35.6,17.59
		c-1.98-0.53-3.96-1.18-6.01-1.26c-4.51-2.09-9.33-3.39-14.1-4.68c-5.27-1.3-10.72-2.68-16.18-1.93c-3.28,0.88-6.75,2.79-7.9,6.2
		c-1.21,4.47,0.44,9.08,2.52,13.02c2.02,1.97,3.62,4.54,6.25,5.79c1.39,1.49,3.23,2.46,5.28,2.72c6.39,1,12.82,1.79,19.21,2.88
		c6.09,1.1,12.5,1.13,18.19,3.84c6.53,2.9,13.5,5.2599,19.01,9.97c8.32,6.33,17.87,11,27.76,14.33c7.12,2.24,15.23,3.92,22.41,1.13
		c13.53-7.8,21.82-23.58,20.81-39.16c8.58-3.04,14.63-10.52,18.91-18.25c1.7401-3.34,3.79-6.7,4.3-10.49
		c0.28-6.12-2.43-11.92-5.66-16.96c-6.23-9.54-14.12-17.91-22.68-25.4c-13.58-13.9-24.73-29.91-37.16-44.8
		c-1.77-1.8-3.94-5.21-6.82-3.34c-5.06,2.61-10.06,7.39-9.77,13.55c0.11,6.33,3.09,12.58,7.4,17.14c1.46,2.43,3.55,4.42,4.96,6.9
		l-0.61,0.64c-13.02-12.36-26.1-24.67-39.2-36.93C407.3097,727.4307,400.5897,726.1807,394.6697,727.9807 M521.6197,837.9707
		c-3.85,6.07-8.77,11.55-15.07,15.14c-0.93,6.64-2.21,13.26-4.97,19.42c27.5601,17.6299,54.86,35.66,82.52,53.12
		c-0.2-14.58-0.03-29.16,0.41-43.73c0.02-2.02,0.37-4.06-0.02-6.04c-5.06-3.8-10.66-6.82-15.92-10.35
		c-10.46-6.58-20.76-13.47-31.34-19.85C532.8997,841.5208,527.0597,840.0407,521.6197,837.9707 M1114.3496,867.2407
		c0.21,1.9,0.58,3.78,1.04,5.67c2.65,10.36,4.63,20.8701,6.47,31.4c36.1801-3.65,72.3199-7.71,108.48-11.52
		c8.87-1.19,17.87-1.48,26.67-3.15c0.03-4.99,0.15-10.02,1.2999-14.89c0.8401-3.81,2.53-7.38,3.2001-11.24l0.7899-0.03
		c0.78-1.89,2.26-3.59,2.4601-5.67c-0.6801-2.1-1.6-4.1-2.41-6.12C1212.9796,856.4907,1163.7196,862.3907,1114.3496,867.2407z"/>
	<path fill="#F0B054" stroke="#F0B054" stroke-width="0.5" d="M836.3997,536.4608c8.3-0.95,16.62,0.19,24.94,0.14
		c7.44,0.31,14.92-0.09,22.36,0.75c6.27,0.7,12.73-0.09,18.87,1.7c-18.18,4.69-36.97,8.14-53.9,16.62c0.14,0.5,0.42,1.52,0.55,2.02
		c-3.84-1.66-8.2-2.71-12.31-1.39c-6.25,1.87-10.62,7.41-13.19,13.16c-1.61-0.12-3.24,0.05-4.58,1.0099
		c-6.1801,3.73-12.21,7.73-17.94,12.13c-3.66,2.83-7.78,5.3-10.25,9.35c-26.47,3.1-52.05,13.85-72.6,30.84
		c-6.37,5.38-12.2,11.57-16.31,18.87c-0.74,1.29-1.42,2.6201-2.09,3.95c4.93-2.4,9.45-5.53,14.43-7.85
		c14.09-6.75,28.99-11.95,44.38-14.75c-5.91,9.06-12.98,17.33-18.51,26.66c-7.68,12.62-15.18,25.43-20.9,39.08
		c-5.92,13.16-11.21,26.62-15.59,40.37c-1.78,6.21-4.34,12.3-4.65,18.83c-1.48-6.76-4.95-13.2-10.6-17.35
		c-5.1801-3.94-12.56-5.21-18.46-2.16c-6.65,2.96-10.79,9.66-12.48,16.53c-2.7,10.55-0.84,22.73,6.53,31.04
		c3.99,4.72,9.9,8.33,16.28,7.84c4.23-0.02,7.87-2.49,11.1-4.95c-2.91,7.68-3.46,15.97-5,23.99c-4.5,28.42-7.28,57.18-7.57,85.93
		c-5.38-2.25-11.98-0.72-15.83,3.65c-4.17,4.69-5.92,10.96-7.03,17.01c-1.57,8.51-0.14,17.23,2.1,25.49
		c2.64,9.4,7.51,18.6201,15.61,24.41c3.92,2.9301,9.09,2.46,13.72,2.53c-2.23,0.74-4.53,1.21-6.82,1.63
		c0.41,9.5499,1.86,19.0499,3.39,28.49c3.75,24.2899,9.38,48.35,17.42,71.6c5.62,17.23,13.12,33.79,20.9,50.15
		c-2.75-2.03-5.61-3.99-8.82-5.1901c-7.59-2.71-16.72,0.5601-21.05,7.3c-4.99,7.46-7.12,16.95-5.06,25.76
		c1.65,8.4199,5.95,17.09,13.95,21.0699c5.1299,2.87,11.6,2.6,16.68-0.26c5.55-2.7899,8.79-8.51,10.82-14.1499
		c2.48-6.9501,1.55-14.4701,0.52-21.5901c4.67,7.75,10.59,14.64,16.62,21.36c9.34,11.3101,20.51,20.9501,32.04,29.9701
		c15.74,12.09,33.0099,22.33,51.58,29.4299c18.04,7.5,37.27,11.6901,56.55,14.49c8.36,0.92,16.73,2.12,25.16,1.8
		c5.42-0.1901,10.8199,0.96,16.24,0.38c5.23-0.5701,10.49-0.2101,15.73-0.5601c22.38-2.15,44.54-7.5,65.04-16.84
		c7.45-3.47,14.54-7.64,22.0099-11.0601c-2.24,4.54-6.37,7.6801-9.68,11.39c-22.24,23.2001-49.02,42.4701-79.1699,53.92
		c-19.8,7.46-41.0101,11.3101-62.1801,10.72c-10.52,0.02-21.11,0.36-31.5-1.5699c4.64-1.76,9.65-1.78,14.53-2.3201
		c19.36-1.8099,38.25-6.5499,57.4-9.6899c17.3099-3.35,35.36-7.34,49.62-18.35c5.3099-4.17,9.8199-9.7001,12.02-16.15
		c-5.9301,1.16-10.8101,5.13-16.6901,6.48c-10.58,2.62-21.41,4.95-32.37,4.67c-5.6801-0.16-11.35,0.1699-17.02-0.15
		c-19.99-1.72-39.78-5.33-59.38-9.53c-19.95-4.96-38.87-13.76-59.31-16.76c-11.24-1.46-23.21-0.99-33.49,4.2101
		c-4.38,2.0699-7.57,7.0199-6.61,11.9399c1.47,7.86,6.85,14.21,12.54,19.52c2.42,2.5,5.68,4.5699,6.71,8.09
		c-7.01-2-13.33-5.73-19.82-8.91c-13.05-6.86-25.34-15.1699-37.01-24.0699c-3.33-6.14-7.9-11.48-11.65-17.35
		c-42.68-62.28-74.61-132.49-89.17-206.77c-9.54-47.66-12.2-96.64-8.46-145.08c4.9-66.6,21.24-131.96,44.41-194.46
		c1.68-4.98,4.22-9.7,4.98-14.95c0.6801-2.37,2.94-3.85,4.1801-5.92c15.16-22.9,34.03-43.5099,56.34-59.62
		C753.2497,550.3207,794.8297,537.3307,836.3997,536.4608z"/>
	<path fill="#F6B95E" stroke="#F6B95E" stroke-width="0.5" d="M902.5697,539.0507c4.91-0.83,9.8799,0.21,14.78,0.66
		c20.85,2.23,41.6901,5.73,61.6,12.44c16.3201,5.75,32.3301,13.96,44.01,27.02c11.3,12.3,17.78,28.17,21.77,44.19
		c5.83,24.09,7.42,48.9,10.73,73.4c4.92,42.74,13.79,85.25,29.49,125.41c6.48,15.8,12.0801,31.97,16.53,48.46
		c22.75,85.6899,13.16,179.47-26.33,258.85c-10.4401,21.04-23.14,40.96-37.8201,59.29c-2.14,2.45-4.0599,5.2999-6.95,6.9199
		c-7.4699,3.42-14.56,7.5901-22.0099,11.0601c-20.5,9.34-42.66,14.6899-65.04,16.84c-5.24,0.35-10.5-0.01-15.73,0.5601
		c-5.42,0.58-10.8199-0.5701-16.24-0.38c-8.43,0.3199-16.8-0.88-25.16-1.8c-19.28-2.7999-38.51-6.99-56.55-14.49
		c-18.57-7.1-35.84-17.34-51.58-29.4299c-11.53-9.02-22.7-18.66-32.04-29.9701c-6.03-6.72-11.95-13.61-16.62-21.36
		c-2.13-4.4399-4.5-8.75-7.04-12.9399c-7.78-16.36-15.28-32.92-20.9-50.15c-8.04-23.25-13.67-47.3101-17.42-71.6
		c-1.53-9.4401-2.98-18.9401-3.39-28.49c2.29-0.42,4.59-0.89,6.82-1.63c5.36-2.8201,9.48-7.98,11.16-13.8
		c0.86-2.96,1.8-5.89,2.8-8.8c4.97,17.33,11.09,34.4901,20.38,50.03c15.16,26.37,38.42,48.42,66.6,60.29
		c33.49,14.54,72.22,14.16,106.57,2.74c31.46-10.48,59.76-29.4399,82.6899-53.27c16.67-17.2899,30.4601-37.1899,41.7301-58.37
		c4.59,0.96,9.7499,1.75,13.9199-1c7.72-4.9,10.66-14.32,12.24-22.84c2.05-10.87-0.2-21.89-3.4099-32.28
		c0.58-3.01,1.6599-6.52-0.4-9.22c-1.6901-2.81-5.2101-3.03-7.98-4.06c-3.7201-2.52-7.63-5.55-12.43-4.83
		c-5.52-0.27-9.12,4.5-11.27,8.95c-1.63,3.31-3.4099,6.55-5.63,9.5c0.2101-6.08,4.17-10.81,7.75-15.34
		c2.28-2.76,3.0801-6.34,3.16-9.83c0.27-6.61,0.26-13.4901-2.4-19.66c-2.1-5.25-7.88-8.69-13.47-8.21
		c-11.89,1.46-22.2,8.02-33.49,11.51c-6.21,2.09-12.75,2.89-19.21,3.82c-12.0801,1.11-24.3301,1.5-36.3301-0.57
		c-16.24-2.93-26.87-18.38-43.35-20.69c-5.53-0.93-10.12,3.52-12.39,8.1c-3.32,6.67-6.9,13.46-12.61,18.42
		c-12.4,10.89-28.21,16.87-43.94,21.08c-15.67,3.85-31.63,6.83-47.78,7.42c-10.32,1.13-21,0.33-30.94,3.86
		c-2.92,1.11-5.8,3.08-7.02,6.07c-0.04,4.6,3.07,8.48,6.13,11.62c13.2,12.73,30.18,20.51,47.17,26.85
		c16.25,6.0099,32.2,13.15,49.23,16.72c20.98,5.14,43.08,4.83,64.15,0.4c23.26-4.82,46.15-11.6,67.99-20.98
		c20.72-9.13,41.36-20.36,56.21-37.87c-0.76,6.98-1.6899,14.12-0.0599,21.06c-13.15,11.25-28.42,19.79-44.21,26.75
		c-36.76,15.81-76.7501,23.67-116.6901,24.52c-21.23,0.2-42.6-1.72-63.2-7.03c-20.7599-5.52-41.47-14.65-56.12-30.85
		c-5.55-5.89-9.4-13.05-12.71-20.36c-1.76-4.21-7.43-5.95-11.19-3.29c-2.79,1.38-3.45,4.63-3.9,7.42
		c-4.31-6.61-8.92-13.6-16.32-17.07c0.29-28.75,3.07-57.51,7.57-85.93c1.54-8.02,2.09-16.31,5-23.99c3.42-4.23,6.62-8.91,7.6-14.36
		c0.95-5.49,0.52-11.09,0.03-16.59c0.31-6.53,2.87-12.62,4.65-18.83c4.38-13.75,9.67-27.21,15.59-40.37
		c5.72-13.65,13.22-26.46,20.9-39.08c5.53-9.33,12.6-17.6,18.51-26.66c14.61-2.83,30.37-4.04,44.42,1.84
		c3.74,1.71,8.42,1.05,11.29-1.99c4.12-4.15,4.19-10.71,2.41-15.95c-2.2-6.29-6.7-12.21-13.27-14.2599
		c-4.15-0.89-8.45-0.6-12.66-0.7c2.47-4.05,6.59-6.52,10.25-9.35c5.73-4.4,11.7599-8.4,17.94-12.13
		c1.34-0.96,2.97-1.1299,4.58-1.0099c-4.26,9.74-3.66,21.28,1.21,30.68c2.64,5.09,6.9,9.51,12.25,11.74
		c4.45,1.51,9.6,1.59,13.91-0.42c8.5-4.6,13.3-14.21,13.44-23.69c0.74-11.68-4.36-24.69-15.31-30.08c-0.13-0.5-0.41-1.52-0.55-2.02
		C865.5997,547.1907,884.3897,543.7407,902.5697,539.0507 M986.5496,588.9307c-5.49,4.87-8.0699,12.07-9.49,19.08
		c-21.6499-12.4-46.45-21.23-71.71-19.43c-9.21,0.13-15.45,8.83-17.09,17.15c-1.11,3.65-0.63,7.67,1.08,11.07
		c2.32,4.43,8.33,7.57,13.04,4.94c5.25-2.77,11.0499-4.38,16.96-4.97c5.0801-0.4,10.1901-1.36,15.29-0.57
		c15.6,0.86,31.08,4.07,45.75,9.42c2.64,8.9,11.29,16.44,20.89,15.93c7.5399-0.67,13.83-6.36,16.8199-13.09
		c4.8101-10.3,3.8-22.82-1.88-32.55c-3.28-4.66-7.39-9.49-13.1899-10.8C997.3597,583.7407,990.8497,584.8307,986.5496,588.9307
		 M917.9197,646.2607c-17.97,7.84-31.9901,23.09-40.5801,40.48c-8.22,16.04-11.51,34.19-11.49,52.09
		c-1.67-27.55-14.3-55.06-36.5-72.01c-11.5-8.66-25.58-14.04-40.03-14.35c-15.47-0.52-30.9,4.75-43.23,14.02
		c-11.73,8.77-20.86,20.74-27.12,33.92c-13.41,28.34-13.93,62.4301-1.49,91.2c6.22,14.32,15.73,27.39,28.29,36.78
		c16.31,12.56,38.42,17.67,58.41,12.15c16.67-4.21,31.09-15.05,41.39-28.62c3.37-4.82,7.3-9.57,8.88-15.34
		c2.5099-2.09,3.05-5.57,4.41-8.39c4.58-11.81,7.36-24.49,7.27-37.18c1.9,2.09,1.47,5.21,2.2,7.8
		c3.95,18.78,12.7401,36.91,26.59,50.38c10.53,10.71,24.3701,18.34,39.2501,20.77c18.49,3.09,37.97-2.2,52.72-13.67
		c5.87-4.67,11.6899-9.73,15.6599-16.16c4.9501-4.7,7.7301-11.28,10.9701-17.2c14.77-28.98,14.14-64.53,0.37-93.75
		c-2.5701-4.88-4.5901-10.33-8.63-14.2c-1.65-3.79-4.6-6.75-7.25-9.83c-8.3101-9.1801-18.78-16.48-30.48-20.63
		C951.5797,638.6907,933.4197,639.3607,917.9197,646.2607 M1012.6996,1019.1907c-8.26,2.6901-12.26,11.51-13.52,19.5
		c-2.46,13.4,0.3601,27.5,6.8101,39.42c2.58,4.8101,5.88,9.53,10.74,12.29c3.96,2.47,8.9799,4.28,13.55,2.2899
		c7.24-2.8099,10.62-10.6699,12.2999-17.72c2.15-11.38,0.72-23.3099-3.37-34.1c-2.9-7.38-7.2-14.55-13.87-19.08
		C1021.6297,1019.5208,1017.0297,1017.9407,1012.6996,1019.1907 M892.6997,1093.2407c-6.65,0.09-12.92,3.74-16.82,9.03
		c-6.1,7.45-8.97,16.9399-10.8,26.25c-2.86,19.13-0.4,39.46,8.9901,56.5599c3.28,5.4701,7.27,10.74,12.68,14.3
		c5.37,3.84,12.73,5.45,18.94,2.6899c8.96-3.25,14.21-12.0099,17.52-20.4399c3.49-8.51,4.53-17.74,4.99-26.84
		c0.01-17.15-4.08-34.7001-13.9399-48.9301C909.2397,1099.0408,901.5297,1093.0907,892.6997,1093.2407z"/>
	<path fill="#DEA550" stroke="#DEA550" stroke-width="0.5" d="M836.9097,556.3007c4.11-1.32,8.47-0.27,12.31,1.39
		c10.95,5.39,16.05,18.4,15.31,30.08c-0.14,9.48-4.94,19.09-13.44,23.69c-4.31,2.0099-9.46,1.93-13.91,0.42
		c-5.35-2.23-9.61-6.65-12.25-11.74c-4.87-9.4-5.47-20.94-1.21-30.68C826.2897,563.7108,830.6597,558.1707,836.9097,556.3007z"/>
	<path fill="#DEA550" stroke="#DEA550" stroke-width="0.5" d="M986.5496,588.9307c4.3-4.1,10.8101-5.19,16.4701-3.82
		c5.7999,1.31,9.9099,6.14,13.1899,10.8c5.6801,9.73,6.6901,22.25,1.88,32.55c-2.99,6.73-9.28,12.42-16.8199,13.09
		c-9.6,0.51-18.25-7.03-20.89-15.93c9.26,2.66,17.54,7.67,26.39,11.32c-0.67-1.32-1.28-2.63-2.02-3.87
		c-7.13-10.37-17.16-18.37-27.6901-25.06C978.4797,601.0007,981.0596,593.8007,986.5496,588.9307z"/>
	<path fill="#87622C" stroke="#87622C" stroke-width="0.5" d="M888.2597,605.7307c1.64-8.32,7.88-17.02,17.09-17.15
		c25.26-1.8,50.0601,7.03,71.71,19.43c10.53,6.69,20.5601,14.69,27.6901,25.06c-2.67,0.28-4.51-1.85-6.42-3.31
		c-6.71-5.57-14.12-10.27-21.9399-14.12c-18.9501-10.09-40.49-15.77-62.02-15.03
		C905.4197,600.7407,896.7697,603.2007,888.2597,605.7307z"/>
	<path fill="#87622C" stroke="#87622C" stroke-width="0.5" d="M718.3497,622.7907c20.55-16.99,46.13-27.74,72.6-30.84
		c4.21,0.1,8.5099-0.19,12.66,0.7c6.57,2.05,11.07,7.97,13.27,14.2599c-2.2,0.79-4.54,0.6801-6.74,0.03
		c-13.23-3.55-27.2401-2.73-40.53,0c-21.72,4.59-42.19,14.63-59.25,28.8c-2.54,2.28-5.05,4.73-8.32,5.92
		C706.1497,634.3607,711.9797,628.1707,718.3497,622.7907z"/>
	<path fill="#A27836" stroke="#A27836" stroke-width="0.5" d="M888.2597,605.7307c8.5099-2.53,17.16-4.99,26.11-5.12
		c21.53-0.74,43.0699,4.94,62.02,15.03c7.8199,3.85,15.23,8.55,21.9399,14.12c1.91,1.46,3.75,3.59,6.42,3.31
		c0.74,1.24,1.35,2.55,2.02,3.87c-8.85-3.65-17.13-8.66-26.39-11.32c-14.67-5.35-30.15-8.56-45.75-9.42
		c-5.1-0.79-10.21,0.17-15.29,0.57c-5.91,0.59-11.71,2.2-16.96,4.97c-4.71,2.63-10.72-0.51-13.04-4.94
		C887.6297,613.4008,887.1497,609.3807,888.2597,605.7307z"/>
	<path fill="#A27836" stroke="#A27836" stroke-width="0.5" d="M769.6097,606.9407c13.29-2.73,27.3-3.55,40.53,0
		c2.2,0.65,4.54,0.76,6.74-0.03c1.78,5.2401,1.71,11.8-2.41,15.95c-2.87,3.04-7.55,3.7-11.29,1.99
		c-14.05-5.88-29.81-4.67-44.42-1.84c-15.39,2.8-30.29,8-44.38,14.75c-4.98,2.32-9.5,5.45-14.43,7.85c0.67-1.33,1.35-2.66,2.09-3.95
		c3.27-1.19,5.78-3.64,8.32-5.92C727.4197,621.5707,747.8897,611.5308,769.6097,606.9407z"/>
	<path fill="#FEEFDE" stroke="#FEEFDE" stroke-width="0.5" d="M659.0797,640.5208c-0.7599,5.25-3.3,9.97-4.98,14.95
		c-23.17,62.5-39.51,127.86-44.41,194.46c-3.74,48.44-1.08,97.42,8.46,145.08c14.56,74.28,46.4901,144.49,89.17,206.77
		c3.75,5.87,8.32,11.21,11.65,17.35c-13.77-9.99-25.7-22.38-36.83-35.1901c-24.34-28.5099-42.75-61.7-56.4301-96.5099
		c-17.69-45.27-27.54-93.37-31.48-141.7401c-3.71-46.57-1.93-93.59,5.39-139.75c8.64-53.39,24.42-106.25,51.7-153.22
		C653.8097,648.5908,656.0897,644.3107,659.0797,640.5208z"/>
	<path fill="#FFFFFF" stroke="#FFFFFF" stroke-width="0.5" d="M917.9197,646.2607c15.5-6.9,33.6599-7.57,49.61-1.74
		c11.7,4.15,22.1699,11.45,30.48,20.63c2.65,3.08,5.6,6.04,7.25,9.83c-5.1901-4.52-9.8201-9.66-15.47-13.66
		c-16.55-12.76-38.78-16.71-59.1001-13.08c-1.26,0.28-2.4399,0.81-3.61,1.31c10.29,3.33,21.5801,4.65,30.55,11.21
		c-8.6-0.32-17.34,2.62-23.49,8.74c-13,12.1-15.9301,32.57-9.11,48.61c3.34,7.69,9.0199,14.6,16.61,18.39
		c8.4,4.39,18.97,4.33,27.2999-0.24c9.88-5.29,16.4801-15.53,18.67-26.36c1.71-7.62,1-15.52-0.72-23.06
		c5.2,3.95,7.61,10.2599,10.4299,15.93c7.91,17.97,11.1001,38.27,7.78,57.71c-2.72,18.96-11.24,37.48-25.47,50.55
		c-4.02,4.06-9.1,6.84-13.1901,10.83c7.25-1.43,13.64-5.37,19.86-9.18c5.8601-3.61,10.3301-9.03,16.25-12.55
		c-3.97,6.43-9.7899,11.49-15.6599,16.16c-14.75,11.47-34.23,16.76-52.72,13.67c-14.88-2.43-28.72-10.06-39.2501-20.77
		c-13.85-13.47-22.64-31.6-26.59-50.38c-0.73-2.59-0.3-5.71-2.2-7.8c-1.16-1.12-1.82-2.57-1.65-4.19
		c0.37-17.88-5.12-35.63-14.32-50.87c-4.67-7.74-10.91-14.39-17.68-20.32c-13.94-11.36-32.22-16.91-50.12-15.95
		c-5.08,0.42-10.67-0.17-15.17,2.64c11.36,2.64,22.9,5.51,33.01,11.57c7.3,4.1,13.89,9.34,19.96,15.08
		c1.52,1.3101,2.37,3.16,2.51,5.15c-7.84-4.38-17.6-5.42-25.98-1.99c-12.17,4.85-20.29,17.05-22.32,29.71
		c-2.52,14.53,2,30.71,13.51,40.37c7.16,6.09,17.19,8.86,26.38,6.53c10.39-2.39,18.71-10.49,23.03-20.02
		c3.17-6.61,4.08-14.02,4.19-21.27c5.01,11.72,5.27,24.8,4.85,37.34c-1.5099,19.68-8.5,39.31-21.78,54.15
		c-5.08,6.36-12.3,10.31-18.22,15.73c15.89-4.16,29.25-14.92,39.5-27.46c2.86-3.56,4.69-8.04,8.6201-10.63
		c-1.58,5.77-5.51,10.52-8.88,15.34c-10.3,13.57-24.72,24.41-41.39,28.62c-19.99,5.52-42.1,0.41-58.41-12.15
		c-12.56-9.39-22.0699-22.46-28.29-36.78c-12.44-28.77-11.92-62.86,1.49-91.2c6.26-13.18,15.39-25.15,27.12-33.92
		c12.33-9.27,27.76-14.54,43.23-14.02c14.45,0.3101,28.53,5.69,40.03,14.35c22.2,16.95,34.83,44.46,36.5,72.01
		c-0.02-17.9,3.27-36.05,11.49-52.09C885.9297,669.3507,899.9497,654.1007,917.9197,646.2607z"/>
	<path fill="#F0F0ED" stroke="#F0F0ED" stroke-width="0.5" d="M930.6896,648.2407c20.3201-3.63,42.55,0.32,59.1001,13.08
		c5.6499,4,10.2799,9.14,15.47,13.66c4.0399,3.87,6.0599,9.32,8.63,14.2c13.77,29.22,14.4,64.77-0.37,93.75
		c-3.24,5.92-6.02,12.5-10.9701,17.2c-5.9199,3.52-10.3899,8.94-16.25,12.55c-6.22,3.81-12.61,7.75-19.86,9.18
		c4.0901-3.99,9.17-6.77,13.1901-10.83c14.23-13.07,22.75-31.59,25.47-50.55c3.3201-19.44,0.13-39.74-7.78-57.71
		c-2.8199-5.67-5.23-11.98-10.4299-15.93c-2.88-7.34-6.8201-14.55-13.24-19.3701c-4.54-3.81-10.29-5.64-16.02-6.71
		c-8.97-6.56-20.26-7.88-30.55-11.21C928.2497,649.0507,929.4296,648.5208,930.6896,648.2407z"/>
	<path fill="#F0F0ED" stroke="#F0F0ED" stroke-width="0.5" d="M767.1897,662.3207c4.5-2.81,10.09-2.22,15.17-2.64
		c17.9-0.96,36.18,4.59,50.12,15.95c6.77,5.93,13.01,12.58,17.68,20.32c9.2,15.24,14.69,32.99,14.32,50.87
		c-0.17,1.62,0.49,3.07,1.65,4.19c0.09,12.69-2.69,25.37-7.27,37.18c-1.36,2.82-1.9,6.3-4.41,8.39
		c-3.9301,2.59-5.76,7.07-8.6201,10.63c-10.25,12.54-23.61,23.3-39.5,27.46c5.92-5.42,13.14-9.37,18.22-15.73
		c13.28-14.84,20.27-34.47,21.78-54.15c0.42-12.54,0.16-25.62-4.85-37.34c-0.99-13.16-7.32-26.29-18.81-33.33
		c-0.14-1.99-0.99-3.84-2.51-5.15c-6.07-5.74-12.66-10.98-19.96-15.08C790.0897,667.8307,778.5497,664.9608,767.1897,662.3207z"/>
	<path fill="#562C1F" stroke="#562C1F" stroke-width="0.5" d="M934.1397,669.5007c6.15-6.12,14.89-9.06,23.49-8.74
		c5.73,1.07,11.48,2.9,16.02,6.71c6.4199,4.82,10.36,12.03,13.24,19.3701c1.72,7.54,2.4299,15.44,0.72,23.06
		c-2.1899,10.83-8.79,21.0699-18.67,26.36c-8.33,4.57-18.8999,4.63-27.2999,0.24c-7.5901-3.79-13.27-10.7-16.61-18.39
		C918.2097,702.0707,921.1397,681.6007,934.1397,669.5007 M934.6697,680.0607c-3.9401,5.4-6.7101,11.92-6.51,18.71
		c-0.42,8.26,1.6699,17.3,7.96,23.08l0.83-0.43c-0.9299,2.77-1.1699,6.42,1.73,8.13c2.29,1.23,4.3501-0.54,5.9401-2.02l-0.01,0.96
		c8.3101,2.93,18.14,1.31,24.49-4.98c8.15-7.85,10.88-20.13,8.52-30.98c-0.37-1.0601-0.5701-3.67-2.28-2.85
		c4.02-4.61,4.14-12.25-0.41-16.54c-3.2899-3.29-9.1399-2.75-12.0499,0.76c-1.03-0.92-1.97-2.03-3.36-2.33
		C950.4897,668.7907,940.2996,672.6508,934.6697,680.0607z"/>
	<path fill="#30160D" stroke="#30160D" stroke-width="0.5" d="M934.6697,680.0607c5.6299-7.41,15.8199-11.27,24.85-8.49
		c1.39,0.3,2.33,1.41,3.36,2.33c-3.96,5.05-3.36,13.55,2.38,17.03c3.22,2.07,7.23,0.89,10.08-1.25c1.71-0.82,1.91,1.79,2.28,2.85
		c2.36,10.85-0.37,23.1299-8.52,30.98c-6.35,6.29-16.1799,7.91-24.49,4.98l0.01-0.96c0.05-2.47,0.27-5.52-2.0601-7.09
		c-1.9199-1.01-3.9299,0.07-5.61,0.98l-0.83,0.43c-6.29-5.78-8.38-14.8199-7.96-23.08
		C927.9597,691.9807,930.7297,685.4608,934.6697,680.0607z"/>
	<path fill="#FFFFFF" stroke="#FFFFFF" stroke-width="0.5" d="M962.8797,673.9008c2.91-3.51,8.76-4.05,12.0499-0.76
		c4.55,4.29,4.4301,11.93,0.41,16.54c-2.85,2.14-6.86,3.32-10.08,1.25C959.5197,687.4507,958.9197,678.9507,962.8797,673.9008z"/>
	<path fill="#562C1F" stroke="#562C1F" stroke-width="0.5" d="M796.6897,692.1307c8.38-3.43,18.14-2.39,25.98,1.99
		c11.49,7.04,17.82,20.17,18.81,33.33c-0.11,7.25-1.02,14.66-4.19,21.27c-4.32,9.53-12.64,17.63-23.03,20.02
		c-9.19,2.33-19.22-0.44-26.38-6.53c-11.51-9.66-16.03-25.84-13.51-40.37C776.3997,709.1807,784.5197,696.9807,796.6897,692.1307
		 M790.8697,705.3107c-9.36,7.75-12.36,21.11-9.74,32.65c1.25,5.1,3.29,10.45,7.73,13.64c-0.16,2.59-0.77,6.16,2.17,7.5
		c2.47,1.52,4.8-0.69,6.22-2.55c0.05,0.47,0.16,1.4,0.22,1.87c4.31,1.07,8.88,1.88,13.28,0.69c10.34-2.5,17.92-12.16,19.59-22.43
		c1.16-5.99,1.5-12.93-1.92-18.24c3.54-4.58,3.45-11.83-0.77-15.95c-3.18-3.19-8.82-2.84-11.91,0.3
		C808.1897,697.7108,797.5597,699.6107,790.8697,705.3107z"/>
	<path fill="#30160D" stroke="#30160D" stroke-width="0.5" d="M790.8697,705.3107c6.69-5.7,17.32-7.6,24.87-2.52
		c-4.22,5.04-3.92,13.96,2.03,17.53c3.45,2.23,7.95,0.94,10.65-1.88c3.42,5.31,3.08,12.25,1.92,18.24
		c-1.67,10.27-9.25,19.93-19.59,22.43c-4.4,1.19-8.97,0.38-13.28-0.69c-0.06-0.47-0.17-1.4-0.22-1.87c-0.43-2.19,0-5.2-2.37-6.37
		c-2.11-1.55-4.25,0.33-6.02,1.42c-4.44-3.19-6.48-8.54-7.73-13.64C778.5097,726.4207,781.5097,713.0607,790.8697,705.3107z"/>
	<path fill="#FFFFFF" stroke="#FFFFFF" stroke-width="0.5" d="M815.7397,702.7907c3.09-3.14,8.73-3.49,11.91-0.3
		c4.22,4.12,4.31,11.37,0.77,15.95c-2.7,2.82-7.2,4.11-10.65,1.88C811.8197,716.7507,811.5197,707.8307,815.7397,702.7907z"/>
	<path fill="#FFFFFF" stroke="#FFFFFF" stroke-width="0.5" d="M936.9496,721.4207c1.6801-0.91,3.6901-1.99,5.61-0.98
		c2.3301,1.57,2.1101,4.62,2.0601,7.09c-1.59,1.48-3.65,3.25-5.9401,2.02C935.7797,727.8408,936.0197,724.1907,936.9496,721.4207z"
		/>
	<path fill="#FEEFDD" stroke="#FEEFDD" stroke-width="0.5" d="M394.6697,727.9807c5.92-1.8,12.64-0.55,17.92,2.5
		c13.1,12.26,26.18,24.57,39.2,36.93l-0.63,0.61c-13.71-10.2-26.19-21.95-39.61-32.51c-6.2-4.3-16.49-4.41-21.04,2.36
		c-3.16,4.3-2.5,9.92-2.1,14.91C381.5397,745.4707,384.8397,731.0407,394.6697,727.9807z"/>
	<path fill="#DBA04B" stroke="#DBA04B" stroke-width="0.5" d="M670.0497,728.4407c5.9-3.05,13.28-1.78,18.46,2.16
		c5.65,4.15,9.12,10.59,10.6,17.35c0.49,5.5,0.92,11.1-0.03,16.59c-0.98,5.45-4.18,10.13-7.6,14.36c-3.23,2.46-6.87,4.93-11.1,4.95
		c-6.38,0.4901-12.29-3.12-16.28-7.84c-7.37-8.31-9.23-20.49-6.53-31.04C659.2597,738.1007,663.3997,731.4008,670.0497,728.4407z"/>
	<path fill="#E09912" stroke="#E09912" stroke-width="0.5" d="M449.8097,729.1807c2.88-1.87,5.05,1.54,6.82,3.34
		c12.43,14.89,23.58,30.9,37.16,44.8c8.56,7.49,16.45,15.86,22.68,25.4c3.23,5.04,5.94,10.84,5.66,16.96
		c-0.51,3.79-2.56,7.15-4.3,10.49c-4.28,7.73-10.33,15.21-18.91,18.25c1.01,15.58-7.28,31.36-20.81,39.16
		c-7.18,2.79-15.29,1.11-22.41-1.13c-9.89-3.33-19.44-8-27.76-14.33c-5.51-4.71-12.48-7.07-19.01-9.97
		c-5.69-2.71-12.1-2.7401-18.19-3.84c-6.39-1.09-12.82-1.88-19.21-2.88c-2.05-0.26-3.89-1.23-5.28-2.72
		c12.51,2.85,25.3,4.41,38.13,4.84c2-0.11,4.86,0.29,5.45-2.25c5.79-15.99,11.9-31.95,20.02-46.93c5.48-9.9,11.48-19.73,19.56-27.73
		c-7.44,15.67-15.89,30.91-21.97,47.21c-3.07,8.4-6.34,16.94-6.88,25.95c-0.16,3.07,0.09,6.92,3.21,8.52
		c12.26,6.89,24.15,14.73,37.46,19.54c5.62,1.85,11.89,3.64,17.7,1.55c4.15-1.3799,6.08-5.65,7.91-9.2599
		c5.68-12.1,9.13-25.84,6.71-39.2c3.12,2,6.61,5.03,10.59,3.83c3.4-2.33,5.42-6.1201,7.97-9.27c3.88-4.89,5.84-11.49,4.18-17.62
		c-2.43-9.56-9.3-17.15-16.14-23.91c-17.06-16.02-33.42-33.04-46.49-52.53c-0.7-0.75-1.12-1.99-2.19-2.2
		c-4.85,2.97-7.46,8.88-7.02,14.47c0.3199,4.1801,1.7,8.19,2.99,12.15c-4.31-4.56-7.29-10.81-7.4-17.14
		C439.7497,736.5707,444.7497,731.7907,449.8097,729.1807z"/>
	<path fill="#FCC369" stroke="#FCC369" stroke-width="0.5" d="M390.5097,737.8707c4.55-6.77,14.84-6.66,21.04-2.36
		c13.42,10.56,25.9,22.31,39.61,32.51l0.63-0.61l0.61-0.64c-1.41-2.48-3.5-4.47-4.96-6.9c-1.29-3.96-2.67-7.97-2.99-12.15
		c-0.44-5.59,2.17-11.5,7.02-14.47c1.07,0.21,1.49,1.45,2.19,2.2c13.07,19.49,29.43,36.51,46.49,52.53
		c6.84,6.76,13.71,14.35,16.14,23.91c1.66,6.13-0.3,12.73-4.18,17.62c-2.55,3.15-4.57,6.94-7.97,9.27
		c-3.98,1.2-7.47-1.83-10.59-3.83c2.42,13.36-1.03,27.1-6.71,39.2c-1.83,3.61-3.76,7.88-7.91,9.2599c-5.81,2.09-12.08,0.3-17.7-1.55
		c-13.31-4.81-25.2-12.65-37.46-19.54c-3.12-1.6-3.37-5.45-3.21-8.52c0.54-9.01,3.81-17.55,6.88-25.95
		c6.08-16.3,14.53-31.54,21.97-47.21c-8.08,8-14.08,17.83-19.56,27.73c-8.12,14.98-14.23,30.94-20.02,46.93
		c-0.59,2.54-3.45,2.14-5.45,2.25c-12.83-0.43-25.62-1.99-38.13-4.84c-2.63-1.25-4.23-3.82-6.25-5.79
		c0.01-5.28,0.24-12.23,5.93-14.64c9.93-2.09,19.82,1.71,29.73,2.03c2.05,0.08,4.03,0.73,6.01,1.26
		c-11.7-6.17-23.76-11.68-35.6-17.59c-2.36-1.2-4.35-3.04-5.87-5.18c-0.24-4.21-1.35-9.06,1.44-12.7c2.93-3.36,7.81-4.87,12.15-3.84
		c14.32,3.06,27.15,10.43,40.78,15.43c1.7599,0.62,3.48,1.37,5.25,2.02c-0.4901-1.56-1.72-2.61-3.08-3.36
		c-12.92-7.7-25.76-15.53-38.61-23.34c-3.11-1.97-6.26-4.51-7.55-8.06c0.45-5.2,1.82-10.58,5.61-14.39c2.49-2.56,6.28-5.61,10-3.66
		c9.25,4.31,17.52,10.4,26.08,15.91c5.7401,3.69,11.06,8.12,17.33,10.94c2.16,1.04,3.96,2.66,5.94,4c-0.75-2.44-3.07-3.71-4.88-5.26
		c-12.53-10.14-25.06-20.26-37.46-30.54c-1.38-1.2-3.02-1.98-4.73-2.5l-0.06-0.67
		C388.0097,747.7907,387.3497,742.1707,390.5097,737.8707z"/>
	<path fill="#FFFFFF" stroke="#FFFFFF" stroke-width="0.5" d="M788.8597,751.6007c1.77-1.09,3.91-2.97,6.02-1.42
		c2.37,1.17,1.94,4.18,2.37,6.37c-1.42,1.86-3.75,4.07-6.22,2.55C788.0897,757.7607,788.6997,754.1907,788.8597,751.6007z"/>
	<path fill="#FEEFDD" stroke="#FEEFDD" stroke-width="0.5" d="M378.6697,756.9608c5.85-2.13,11.81,0.5099,16.52,3.96
		c10.37,6.8,20.01,14.62,29.66,22.38c1.71,1.34,3.32,2.81,4.75,4.45c-6.27-2.82-11.59-7.25-17.33-10.94
		c-8.56-5.51-16.83-11.6-26.08-15.91c-3.72-1.95-7.51,1.1-10,3.66c-3.79,3.81-5.16,9.19-5.61,14.39
		C367.6297,771.0407,370.2197,760.2108,378.6697,756.9608z"/>
	<path fill="#FEEFDE" stroke="#FEEFDE" stroke-width="0.5" d="M361.9697,792.3807c4.17-3.46,10.21-3.3,14.95-1.16
		c10.9,4.64,21.29,10.41,31.53,16.35c2.14,1.2,4.29,2.45,6.12,4.12c-13.63-5-26.46-12.37-40.78-15.43
		c-4.34-1.03-9.22,0.48-12.15,3.84c-2.79,3.64-1.68,8.4901-1.44,12.7C356.1197,806.7907,355.9897,797.2108,361.9697,792.3807z"/>
	<path fill="#9E4F19" stroke="#9E4F19" stroke-width="0.5" d="M1367.1096,805.7607c4.39-1.02,9.21-1.28,13.3199,0.9
		c6.27,3.15,9.79,9.86,11.3,16.47c1.46,6.77,1.34,14.11-1.5599,20.51c-1.0801,1.93-0.05,4.08,0.25,6.09
		c1.6699,7.87,1.75,16.35-1.27,23.92c-0.5801,1.5099-1.3501,3.11-0.6901,4.75c1.73,6.99,2.61,14.6,0.11,21.53
		c-0.88,2.86-3.2899,5.5-2.09,8.65c1.54,6.76,0.24,14.49-4.65,19.63c-3.4299,3.79-8.86,4.12-13.47,5.48
		c-0.01-2.53,0.03-5.05,0.1-7.57c3.5801-1.08,8.35-1.48,9.8-5.59c2.66-4.96,0.5599-10.4901,0.21-15.69
		c0.5601-3.02,2.6901-5.48,3.5-8.44c1.78-6.28,0.08-12.77-1.38-18.92c-0.65-1.91,0.4-3.73,1.09-5.44
		c3.9601-8.03,2.63-17.45,0.28-25.75c-1.12-3.12,1.66-5.67,2.42-8.52c1.99-6.77,0.54-14.23-2.77-20.35
		c-2.67-5.32-9.21-5.89-14.37-4.51C1367.1497,810.5107,1367.1096,808.1307,1367.1096,805.7607z"/>
	<path fill="#FEEFDE" stroke="#FEEFDE" stroke-width="0.5" d="M1318.5197,821.0407c4.4399-4.17,8.7799-8.44,13.5699-12.22
		c4.3,13.84,8.72,27.75,15.4401,40.65c3.34,6.35,7.33,12.65,13.2899,16.85c0.8501,0.82,2.7001,1.52,1.55,2.93
		c-9.86-2.26-16.8201-10.61-21.45-19.11c-4.9701-8.59-7.4401-18.24-11.01-27.41c-0.99,2.43-1.9401,4.87-2.9,7.32
		C1324.2396,826.9807,1321.0996,824.2708,1318.5197,821.0407z"/>
	<path fill="#E09912" stroke="#E09912" stroke-width="0.5" d="M1357.0197,810.7007c1.9299,0.59,3.8099,1.36,5.71,2.1l-0.1899,1.03
		c0.0599,2.27,0.38,4.53,0.71,6.8c1.11,8.03,2.1799,16.08,3.0599,24.14c0.0901,0.78,0.28,2.33,0.37,3.11
		c1.0701,7.92,2.51,15.81,2.78,23.82c-4.4399,2.56-10.1,3.29-14.6699,0.63c-7.26-4.15-12.64-11.08-16.1801-18.55
		c-0.8101-1.19-1.22-3.19-3.02-2.89c-4.0499,5.63-4.8099,13.85-1.49,19.99c10.4401,5.92,23.02,3.54,34.4401,5.32
		c-10.7301,1.71-21.66,0.27-32.4501,1.19c-2.88,3.46-4.6899,7.77-4.75,12.3c-0.08,3.75-0.22,8.31,2.97,10.95
		c10.78,0.91,21.49,2.49,32.25,3.65c-0.5199,0.13-1.5599,0.38-2.08,0.51c-10.26,0.41-20.55-0.21-30.78,0.33
		c-3.4299,3.13-5.01,8.08-4.8099,12.65c0.14,4.16,3.12,7.3,5.72,10.23c-1.14-0.33-2.26-0.67-3.36-1.02c-3.77-1.71-6.12-5.3-7.15-9.2
		c0.27-4.77,2.26-9.16,4.77-13.15c-5.84-9.31-5.6-22.41,1.9399-30.72c-6.48-8.24-6.1-21.82,2.53-28.45
		c-2.02-5.18-4.47-10.18-6.33-15.42c0.96-2.45,1.91-4.89,2.9-7.32c3.5699,9.17,6.0399,18.82,11.01,27.41
		c4.6299,8.5,11.59,16.85,21.45,19.11c1.01,0.2,2.03,0.4,3.08,0.59C1362.9896,850.0807,1359.1896,830.5007,1357.0197,810.7007z"/>
	<path fill="#FEEFDE" stroke="#FEEFDE" stroke-width="0.5" d="M1362.5397,813.8307c1.5499-0.32,3.12-0.65,4.7-0.92
		c5.16-1.3799,11.7-0.81,14.37,4.51c-6.13,1.04-12.3199,1.74-18.36,3.21C1362.9197,818.3607,1362.5996,816.1007,1362.5397,813.8307z
		"/>
	<path fill="#FCC369" stroke="#FCC369" stroke-width="0.5" d="M1363.2496,820.6307c6.04-1.47,12.23-2.17,18.36-3.21
		c3.3101,6.12,4.76,13.58,2.77,20.35c-0.76,2.85-3.54,5.4-2.42,8.52c2.35,8.3,3.6801,17.72-0.28,25.75
		c-0.6899,1.71-1.74,3.53-1.09,5.44c1.46,6.15,3.16,12.64,1.38,18.92c-0.8099,2.96-2.9399,5.42-3.5,8.44
		c0.35,5.2,2.4501,10.73-0.21,15.69c-1.4501,4.11-6.22,4.5099-9.8,5.59c-0.59,0.15-1.7899,0.45-2.38,0.6
		c-10.3099,2.54-21,3.45-31.5399,2.05l0.0699-0.76c0.01-3.21-1.84-6.07-1.9399-9.25c0.0499-3.93,2.0399-7.43,3.83-10.8
		c9.3099-1.17,18.84-0.88,27.98-3.16c0.52-0.13,1.5601-0.38,2.08-0.51c-10.76-1.16-21.47-2.74-32.25-3.65
		c-0.35-4.55-1.3099-9.26,0.14-13.71c1.14-3.47,4.02-6.79,7.91-6.9c7.72-0.7,15.48-1.03,23.2-1.89
		c-9.72-1.86-19.6699,0.29-29.47-0.75c10.79-0.92,21.72,0.52,32.4501-1.19c-11.42-1.78-24,0.6-34.4401-5.32
		c-0.08-3.36-0.5-6.73,0.0601-10.05c0.4299-2.88,2.72-4.89,4.45-7.05c3.54,7.47,8.92,14.4,16.1801,18.55
		c4.5699,2.66,10.23,1.93,14.6699-0.63c-0.27-8.01-1.71-15.9-2.78-23.82c4.1801-0.76,8.2401-2.1,12.02-4.07
		c-4.1599,0.05-8.2799,0.47-12.39,0.96C1365.4296,836.7108,1364.3596,828.6607,1363.2496,820.6307z"/>
	<path fill="#F8BE65" stroke="#F8BE65" stroke-width="0.5" d="M854.7197,834.0807c2.27-4.58,6.86-9.03,12.39-8.1
		c16.48,2.31,27.11,17.76,43.35,20.69c12,2.07,24.25,1.68,36.3301,0.57c6.46-0.93,13-1.73,19.21-3.82
		c11.29-3.49,21.6-10.05,33.49-11.51c5.59-0.48,11.37,2.96,13.47,8.21c2.66,6.17,2.67,13.05,2.4,19.66
		c-0.08,3.49-0.88,7.0699-3.16,9.83c-3.58,4.53-7.5399,9.26-7.75,15.34c-0.39,0.9-0.77,1.8-1.14,2.72
		c-14.85,17.51-35.49,28.74-56.21,37.87c-21.84,9.38-44.73,16.16-67.99,20.98c-21.07,4.43-43.17,4.74-64.15-0.4
		c-17.03-3.57-32.98-10.71-49.23-16.72c-16.99-6.34-33.97-14.12-47.17-26.85c-3.06-3.14-6.17-7.02-6.13-11.62
		c1.22-2.99,4.1-4.96,7.02-6.07c9.94-3.53,20.62-2.73,30.94-3.86c16.15-0.59,32.11-3.57,47.78-7.42
		c15.73-4.21,31.54-10.19,43.94-21.08C847.8197,847.5407,851.3997,840.7507,854.7197,834.0807z"/>
	<path fill="#FEEFDE" stroke="#FEEFDE" stroke-width="0.5" d="M357.4797,833.9008c1.15-3.41,4.62-5.32,7.9-6.2
		c5.46-0.75,10.91,0.63,16.18,1.93c4.77,1.29,9.59,2.59,14.1,4.68c-9.91-0.32-19.8-4.12-29.73-2.03c-5.69,2.41-5.92,9.36-5.93,14.64
		C357.9197,842.9807,356.2697,838.3707,357.4797,833.9008z"/>
	<path fill="#FCC369" stroke="#FCC369" stroke-width="0.5" d="M521.6197,837.9707c5.44,2.07,11.28,3.55,15.61,7.71l-1.07,0.11
		c15.6,12.7,32.13,24.2401,48.35,36.13c-0.44,14.57-0.61,29.15-0.41,43.73c-27.66-17.46-54.96-35.4901-82.52-53.12
		c2.76-6.16,4.04-12.78,4.97-19.42C512.8497,849.5208,517.7697,844.0407,521.6197,837.9707z"/>
	<path fill="#FEE9CE" stroke="#FEE9CE" stroke-width="0.5" d="M1366.3096,844.7708c4.1101-0.49,8.2301-0.91,12.39-0.96
		c-3.7799,1.97-7.84,3.31-12.02,4.07C1366.5896,847.1007,1366.3997,845.5507,1366.3096,844.7708z"/>
	<path fill="#FEEFDD" stroke="#FEEFDD" stroke-width="0.5" d="M536.1597,845.7907l1.07-0.11c10.58,6.38,20.88,13.27,31.34,19.85
		c5.2599,3.53,10.86,6.55,15.92,10.35c0.39,1.98,0.04,4.02,0.02,6.04C568.2897,870.0308,551.7597,858.4907,536.1597,845.7907z"/>
	<path fill="#FEEFDD" stroke="#FEEFDD" stroke-width="0.5" d="M1335.5896,850.8907c1.8-0.3,2.21,1.7,3.02,2.89
		c-1.73,2.16-4.02,4.17-4.45,7.05c-0.5601,3.32-0.14,6.69-0.0601,10.05C1330.7797,864.7407,1331.5397,856.5208,1335.5896,850.8907z"
		/>
	<path fill="#FEEFDE" stroke="#FEEFDE" stroke-width="0.5" d="M1114.3496,867.2407c49.37-4.85,98.63-10.75,148-15.55
		c0.8101,2.02,1.73,4.02,2.41,6.12c-0.2001,2.08-1.6801,3.78-2.4601,5.67l-0.7899,0.03c-28.0801,1.54-56.12,3.75-84.1901,5.5
		c-20.6499,1.22-41.27,3.08-61.9299,3.9C1114.9296,871.0208,1114.5596,869.1407,1114.3496,867.2407z"/>
	<path fill="#FCC369" stroke="#FCC369" stroke-width="0.5" d="M1177.3196,869.0107c28.0701-1.75,56.11-3.96,84.1901-5.5
		c-0.67,3.86-2.36,7.43-3.2001,11.24c-1.1499,4.87-1.2699,9.9-1.2999,14.89c-8.8,1.67-17.8,1.96-26.67,3.15
		c-36.16,3.81-72.2999,7.87-108.48,11.52c-1.84-10.53-3.8199-21.04-6.47-31.4
		C1136.0496,872.0908,1156.6697,870.2307,1177.3196,869.0107z"/>
	<path fill="#DEA550" stroke="#DEA550" stroke-width="0.5" d="M1010.0797,875.4507c2.15-4.45,5.75-9.22,11.27-8.95
		c4.8-0.72,8.7099,2.31,12.43,4.83c-6.13,2.85-7.41,9.85-10.81,15.03c-5.28,8.47-12.02,16.02-19.72,22.37
		c-1.63-6.94-0.7001-14.08,0.0599-21.06c0.37-0.92,0.75-1.82,1.14-2.72C1006.6697,882.0007,1008.4496,878.7607,1010.0797,875.4507z"
		/>
	<path fill="#9E4F19" stroke="#9E4F19" stroke-width="0.5" d="M1033.7797,871.3307c2.7699,1.03,6.2899,1.25,7.98,4.06
		c2.0599,2.7,0.98,6.21,0.4,9.22c-6.16,19.25-13.29,38.23-22.7499,56.12c-11.27,21.1801-25.0601,41.0801-41.7301,58.37
		c-22.9299,23.8301-51.23,42.79-82.6899,53.27c-34.35,11.42-73.08,11.8-106.57-2.74c-28.18-11.87-51.44-33.92-66.6-60.29
		c-9.29-15.5399-15.41-32.7-20.38-50.03c-2.42-11.08-4.28-22.25-6.21-33.42c0.45-2.79,1.11-6.04,3.9-7.42
		c3.76-2.66,9.43-0.92,11.19,3.29c3.31,7.31,7.16,14.47,12.71,20.36c14.65,16.2,35.36,25.33,56.12,30.85
		c20.6,5.3101,41.97,7.23,63.2,7.03c39.94-0.85,79.9301-8.71,116.6901-24.52c15.7899-6.96,31.0599-15.5,44.21-26.75
		c7.7-6.35,14.4399-13.9,19.72-22.37C1026.3696,881.1807,1027.6497,874.1807,1033.7797,871.3307 M1016.6996,907.1107
		c-1.9399,2.21-4.6899,3.86-6.0499,6.49c-6.4601,4.67-12.48,9.98-19.3501,14.07c-7.37,4.85-15.33,8.66-23.0499,12.88
		c-15.22,6.47-30.6901,12.62-46.84,16.39l-0.01,0.7201c-3.4701,0.08-6.77,1.23-10.12,1.99c-31.08,7.0499-63.1801,9.83-94.98,7.5499
		c-9.56-0.61-18.99-2.48-28.47-3.5699c-6.27-2.09-12.8799-3.02-19.12-5.23c-10.42-3.12-20.33-7.66-29.86-12.84
		c-8.65-5.63-16.78-12.04-23.66-19.75c-1.02-2.18-2.74-3.91-4.07-5.88c-2.48-3.34-4-7.31-6.78-10.44c0.13,6.8,1.96,13.41,3.22,20.06
		c5.16,23.5,14.2,46.31,27.89,66.19c4.03,5.1801,7.61,10.95,12.8199,15.0601c2.03,4.8999,7.1,7.34,10.73,10.8999
		c1.26,1.1901,2.64,2.28,4.11,3.26c3,2.75,6.23,5.4701,10.05,7c4.7,3.9301,10.42,6.42,15.88,9.12
		c13.05,5.92,27.1,9.64,41.38,10.9401c8.73,0.6799,17.72,1.65,26.34-0.41c4.66,0.54,9.77-0.29,14.21-1.95
		c2.75,0.38,5.49-0.63,8.17-1.16c11.52-2.87,22.81-6.78,33.49-11.98c1.01-0.54,2.02-1.0701,3.0699-1.5601
		c2.03-0.88,4.01-1.87,5.9401-2.96c6.37-3.87,13.15-7.24,18.9-12.03c7.4399-4.6599,14.25-10.38,20.6799-16.36
		c4.47-4.17,9.9401-7.74,12.8-13.27c5.12-4.1899,8.97-9.6599,13.1899-14.7c4.9401-6.76,10.5-13.2001,14.25-20.74
		c9.37-14,16.8301-29.27,23.2-44.86c2.7899-7.69,6.33-15.2,7.72-23.3C1027.7396,893.9507,1022.9396,901.1508,1016.6996,907.1107z"/>
	<path fill="#FEEFDD" stroke="#FEEFDD" stroke-width="0.5" d="M1331.3396,889.6907c0.0601-4.53,1.87-8.84,4.75-12.3
		c9.8,1.04,19.75-1.11,29.47,0.75c-7.72,0.86-15.48,1.19-23.2,1.89c-3.89,0.11-6.77,3.43-7.91,6.9c-1.45,4.45-0.49,9.16-0.14,13.71
		C1331.1196,898.0007,1331.2596,893.4407,1331.3396,889.6907z"/>
	<path fill="#DEA550" stroke="#DEA550" stroke-width="0.5" d="M1019.4097,940.7307c9.4599-17.89,16.5899-36.87,22.7499-56.12
		c3.21,10.39,5.46,21.41,3.4099,32.28c-1.58,8.52-4.52,17.94-12.24,22.84C1029.1597,942.4807,1023.9997,941.6907,1019.4097,940.7307
		z"/>
	<path fill="#DCA24C" stroke="#DCA24C" stroke-width="0.5" d="M663.0797,892.4707c3.85-4.37,10.45-5.9,15.83-3.65
		c7.4,3.47,12.01,10.46,16.32,17.07c1.93,11.17,3.79,22.34,6.21,33.42c-1,2.91-1.94,5.84-2.8,8.8c-1.6801,5.82-5.8,10.98-11.16,13.8
		c-4.63-0.0701-9.8,0.4-13.72-2.53c-8.1-5.79-12.97-15.01-15.61-24.41c-2.24-8.2599-3.67-16.98-2.1-25.49
		C657.1597,903.4307,658.9097,897.1607,663.0797,892.4707z"/>
	<path fill="#FEEFDD" stroke="#FEEFDD" stroke-width="0.5" d="M1333.6996,905.1307c10.23-0.54,20.52,0.08,30.78-0.33
		c-9.14,2.28-18.67,1.99-27.98,3.16c-1.79,3.37-3.78,6.87-3.83,10.8c0.1,3.18,1.95,6.04,1.9399,9.25c-2.6-2.93-5.58-6.07-5.72-10.23
		C1328.6896,913.2108,1330.2697,908.2607,1333.6996,905.1307z"/>
	<path fill="#C6C6C6" stroke="#C6C6C6" stroke-width="0.5" d="M1366.0796,926.7207c0.5901-0.15,1.79-0.45,2.38-0.6
		c-0.0699,2.52-0.11,5.04-0.1,7.57c0,30.02,0,60.04,0,90.06c-0.1,5.64,0.23,11.29-0.23,16.92c-11.23,0.73-22.53,0.1599-33.78,0.3099
		c-2.04,0.51-3.1799-1.45-2.97-3.22c-0.0601-34.3101,0-68.63-0.02-102.95c-0.02-2.62-0.05-5.22-0.11-7.82
		c1.1,0.35,2.22,0.69,3.36,1.02l-0.0699,0.76c-1.14,10.62-0.26,21.32-0.53,31.98c0.1799,25.91-0.37,51.83,0.26,77.73
		c10.59-0.0599,21.1899-0.02,31.7899-0.03C1366.0197,1001.2107,1365.9496,963.9607,1366.0796,926.7207z"/>
	<path fill="#707070" stroke="#707070" stroke-width="0.5" d="M1334.5397,928.7708c10.5399,1.4,21.23,0.49,31.5399-2.05
		c-0.13,37.24-0.0599,74.49-0.02,111.73c-10.6,0.01-21.2-0.0299-31.7899,0.03c-0.63-25.9-0.0801-51.8199-0.26-77.73
		C1334.2797,950.0908,1333.3997,939.3907,1334.5397,928.7708z"/>
	<linearGradient id="SVGID_1_" gradientUnits="userSpaceOnUse" x1="715.1167" y1="954.0224" x2="1010.9363" y2="954.0224">
		<stop  offset="0" style="stop-color:#D4D5D6"/>
		<stop  offset="0.5" style="stop-color:#FFFFFF"/>
		<stop  offset="1" style="stop-color:#D4D5D6"/>
	</linearGradient>
	<path fill="url(#SVGID_1_)" stroke="#E3E5E6" stroke-width="0.5" d="M1010.6497,913.6007c-6.46,4.67-12.48,9.98-19.3501,14.07
		c-7.3701,4.85-15.3301,8.66-23.0498,12.88c-15.2202,6.47-30.6902,12.62-46.8401,16.39l-0.01,0.7201
		c-3.4702,0.08-6.77,1.23-10.1201,1.99c-31.0798,7.0499-63.1799,9.83-94.98,7.5499c-9.5601-0.61-18.99-2.48-28.47-3.5699
		c-6.27-2.09-12.8799-3.02-19.1199-5.23c-10.4202-3.12-20.3301-7.66-29.8601-12.84c-8.6499-5.63-16.78-12.04-23.6599-19.75
		c-0.3,5.42,0.23,11.06,3.3699,15.67c3.1401,5.22,7.8801,9.18,12.48,13.08c6.3701,5.29,13.3801,9.7401,20.4202,14.08
		c7.2998,3.75,14.6199,7.5,22.3398,10.34c4.8901,1.9401,9.8401,3.75,14.8701,5.3201c8.75,2.5399,17.6099,4.76,26.5801,6.38
		c3.7798,0.62,7.5698,1.22,11.3699,1.74c12.52,1.5599,25.1599,2.33,37.78,1.9099c14.04-0.39,28.01-2.1599,41.75-5.0399
		c5.1899-1.16,10.3101-2.63,15.3999-4.15c4.6802-1.41,9.3401-2.9,13.8999-4.67c9.3203-3.6699,18.3601-8.0399,26.98-13.14
		c4.4502-2.6499,8.7402-5.5499,12.9202-8.6c7.5798-5.39,14.53-11.63,21.0701-18.25c4.2-4.69,8.54-9.32,12.1499-14.49
		C1011.1097,922.3707,1011.2298,917.8107,1010.6497,913.6007z"/>
	<linearGradient id="SVGID_2_" gradientUnits="userSpaceOnUse" x1="704.3397" y1="959.3707" x2="1032.3796" y2="959.3707">
		<stop  offset="0" style="stop-color:#693B16"/>
		<stop  offset="1" style="stop-color:#B8252E"/>
	</linearGradient>
	<path fill="url(#SVGID_2_)" stroke="#86391F" stroke-width="0.5" d="M1016.6995,907.1107c-1.9399,2.21-4.6899,3.86-6.0498,6.49
		c0.5801,4.21,0.46,8.77-2.0801,12.39c-3.6099,5.17-7.95,9.8-12.1499,14.49c-6.54,6.62-13.4902,12.86-21.0701,18.25
		c-4.1799,3.05-8.47,5.9501-12.9202,8.6c-8.6199,5.1001-17.6597,9.4701-26.98,13.14c-4.5598,1.77-9.2197,3.26-13.8999,4.67
		c-5.0898,1.52-10.21,2.99-15.3999,4.15c-13.74,2.88-27.71,4.6499-41.75,5.0399c-12.6201,0.42-25.26-0.35-37.78-1.9099
		c-3.8-0.52-7.5901-1.12-11.3699-1.74c-8.9702-1.62-17.8301-3.8401-26.5801-6.38c-5.03-1.5701-9.98-3.38-14.8701-5.3201
		c-7.72-2.84-15.04-6.59-22.3398-10.34c-7.04-4.34-14.05-8.79-20.4202-14.08c-4.5999-3.9-9.3398-7.86-12.48-13.08
		c-3.1399-4.61-3.6699-10.25-3.3699-15.67c-1.02-2.18-2.74-3.91-4.0701-5.88c-2.48-3.34-4-7.31-6.78-10.44
		c0.1299,6.8,1.96,13.41,3.22,20.06c5.1599,23.5,14.2,46.31,27.8901,66.19c4.03,5.1801,7.6099,10.95,12.8198,15.0601
		c2.03,4.8999,7.1001,7.34,10.7302,10.8999c8.8198-4.4199,18.4897-7.38,28.3599-8.0599c10.48-0.71,20.9199,1.0699,30.8999,4.2
		c5.9502,2.5601,11.8,5.36,17.71,8.04c-0.0398-3.02-0.7898-6.5699,1.55-8.97c4.0801-4.74,10.6802-5.38,16.4302-6.55
		c7.4299,0.41,14.95,0.01,22.28,1.53c9.2598,1.5499,18.2397,4.45,26.7998,8.28c6.6602,3.1499,12.9102,7.1499,18.6101,11.83
		c6.3699-3.87,13.1501-7.24,18.9001-12.03c7.4399-4.6599,14.25-10.38,20.6797-16.36c4.4702-4.17,9.9402-7.74,12.8003-13.27
		c5.1199-4.1899,8.9697-9.6599,13.1899-14.7c4.9399-6.76,10.5-13.2001,14.25-20.74c9.3699-14,16.8301-29.27,23.1999-44.86
		c2.7898-7.69,6.3298-15.2,7.72-23.3C1027.7395,893.9507,1022.9398,901.1508,1016.6995,907.1107z"/>
	<path fill="#D25A47" stroke="#D25A47" stroke-width="0.5" d="M837.5197,1016.9108c4.08-4.74,10.6801-5.38,16.4301-6.55
		c7.43,0.41,14.95,0.01,22.28,1.53c9.26,1.5499,18.24,4.45,26.8,8.28c6.66,3.1499,12.91,7.1499,18.61,11.83
		c-1.9301,1.09-3.91,2.08-5.9401,2.96c-12.9-8-27.43-13.23-42.23-16.36c-6.19-1.1-12.7-2.38-18.89-0.65
		c-3.35,0.8601-5.68,4.63-4.53,8c2.46,9.38,9.75,16.24,15.18,23.9401c-7.46-4.49-14.54-9.61-22.21-13.75
		c-14.45-7.88-30.27-13.7001-46.75-15.13c-11.18-1.04-22.48,0.61-33.16,3.95c-1.47-0.98-2.85-2.0699-4.11-3.26
		c8.82-4.4199,18.49-7.38,28.36-8.0599c10.48-0.71,20.92,1.0699,30.9,4.2c5.95,2.5601,11.8,5.36,17.71,8.04
		C835.9297,1022.8607,835.1797,1019.3108,837.5197,1016.9108z"/>
	<path fill="#ED6D61" stroke="#ED6D61" stroke-width="0.5" d="M854.5797,1017.9507c6.19-1.73,12.7-0.45,18.89,0.65
		c14.8,3.13,29.33,8.36,42.23,16.36c-1.0499,0.49-2.0599,1.02-3.0699,1.5601c-6.17-6.22-14.98-8.12-22.89-11.15
		c-7.44-2.35-15.04-5.11-22.94-4.99c-5.16-0.01-9.75,4.9399-8.24,10.15c2.22,7.4199,8.29,12.77,12.41,19.13
		c-4.44,1.6599-9.55,2.49-14.21,1.95c-4.8-4.5499-10.64-7.73-16.4-10.87c-11.85-6.33-24.73-10.88-37.99-13.05
		c-9.94-1.8199-19.9,0.9301-29.21,4.27c-3.82-1.5299-7.05-4.25-10.05-7c10.68-3.34,21.98-4.99,33.16-3.95
		c16.48,1.4299,32.3,7.25,46.75,15.13c7.67,4.14,14.75,9.26,22.21,13.75c-5.43-7.7001-12.72-14.5601-15.18-23.9401
		C848.8997,1022.5807,851.2297,1018.8108,854.5797,1017.9507z"/>
	<path fill="#DEA550" stroke="#DEA550" stroke-width="0.5" d="M1012.6996,1019.1907c4.3301-1.25,8.9301,0.3301,12.64,2.6001
		c6.67,4.5299,10.97,11.7,13.87,19.08c4.09,10.79,5.52,22.72,3.37,34.1c-1.6799,7.05-5.0599,14.91-12.2999,17.72
		c-4.5701,1.9901-9.59,0.1801-13.55-2.2899c-4.86-2.76-8.16-7.48-10.74-12.29c-6.45-11.92-9.27-26.02-6.8101-39.42
		C1000.4396,1030.7007,1004.4396,1021.8807,1012.6996,1019.1907z"/>
	<path fill="#F18676" stroke="#F18676" stroke-width="0.5" d="M866.7997,1020.3807c7.9-0.12,15.5,2.64,22.94,4.99
		c7.91,3.03,16.72,4.9301,22.89,11.15c-10.68,5.2-21.97,9.11-33.49,11.98c-2.6801,0.53-5.42,1.54-8.17,1.16
		c-4.12-6.36-10.19-11.7101-12.41-19.13C857.0497,1025.3207,861.6397,1020.3707,866.7997,1020.3807z"/>
	<path fill="#F18676" stroke="#F18676" stroke-width="0.5" d="M773.1597,1031.9607c9.31-3.34,19.27-6.09,29.21-4.27
		c13.26,2.17,26.14,6.7201,37.99,13.05c5.76,3.14,11.6,6.3201,16.4,10.87c-8.62,2.0601-17.61,1.09-26.34,0.41
		c-14.28-1.3-28.33-5.02-41.38-10.9401C783.5797,1038.3807,777.8597,1035.8907,773.1597,1031.9607z"/>
	<path fill="#DEA550" stroke="#DEA550" stroke-width="0.5" d="M892.6997,1093.2407c8.83-0.15,16.54,5.8,21.56,12.62
		c9.86,14.23,13.95,31.78,13.9399,48.9301c-0.46,9.1-1.5,18.33-4.99,26.84c-3.3099,8.4301-8.5599,17.1899-17.52,20.4399
		c-6.21,2.76-13.57,1.15-18.94-2.6899c-5.41-3.5601-9.4-8.83-12.68-14.3c-9.39-17.1-11.85-37.4299-8.9901-56.5599
		c1.83-9.3101,4.7-18.8,10.8-26.25C879.7797,1096.9807,886.0497,1093.3307,892.6997,1093.2407z"/>
	<path fill="#DBA04B" stroke="#DBA04B" stroke-width="0.5" d="M692.4997,1115.8907c4.33-6.74,13.46-10.01,21.05-7.3
		c3.21,1.2001,6.07,3.16,8.82,5.1901c2.54,4.1899,4.91,8.5,7.04,12.9399c1.03,7.12,1.96,14.64-0.52,21.5901
		c-2.03,5.6399-5.27,11.36-10.82,14.1499c-5.08,2.86-11.55,3.13-16.68,0.26c-8-3.98-12.3-12.65-13.95-21.0699
		C685.3797,1132.8407,687.5097,1123.3507,692.4997,1115.8907z"/>
	<path fill="#EAAD52" stroke="#EAAD52" stroke-width="0.5" d="M763.1597,1212.5608c10.28-5.2001,22.25-5.67,33.49-4.2101
		c20.44,3,39.36,11.8,59.31,16.76c19.6,4.2001,39.39,7.8101,59.38,9.53c5.67,0.3199,11.34-0.01,17.02,0.15
		c10.96,0.2799,21.79-2.05,32.37-4.67c5.88-1.35,10.76-5.3199,16.6901-6.48c-2.2001,6.45-6.7101,11.98-12.02,16.15
		c-14.26,11.01-32.3101,15-49.62,18.35c-19.15,3.14-38.04,7.88-57.4,9.6899c-4.88,0.54-9.89,0.5601-14.53,2.3201
		c-5.15,0.4199-10.31-1.0801-15.43-1.5801c-19.34-3.0399-38.38-8.2-56.4-15.8899l-0.22-0.5701c-1.03-3.52-4.29-5.59-6.71-8.09
		c-5.69-5.3101-11.07-11.66-12.54-19.52C755.5897,1219.5807,758.7797,1214.6307,763.1597,1212.5608z"/>
</g>
</svg>
