<?xml version="1.0" standalone="no"?>
<!DOCTYPE svg PUBLIC "-//W3C//DTD SVG 20010904//EN"
 "http://www.w3.org/TR/2001/REC-SVG-20010904/DTD/svg10.dtd">
<svg version="1.0" xmlns="http://www.w3.org/2000/svg"
 width="512.000000pt" height="512.000000pt" viewBox="0 0 512.000000 512.000000"
 preserveAspectRatio="xMidYMid meet">

<g transform="translate(0.000000,512.000000) scale(0.100000,-0.100000)"
fill="#000000" stroke="none">
<path d="M2480 5073 c-105 -104 -598 -652 -605 -671 -16 -52 47 -107 99 -86
14 5 149 145 302 312 152 166 280 302 284 302 4 0 308 -327 674 -727 l667
-728 -343 -5 c-189 -3 -344 -7 -346 -8 -1 -1 -11 -17 -22 -34 -19 -31 -20 -52
-20 -410 l0 -378 -610 0 -610 0 0 370 c0 382 -4 422 -41 446 -8 5 -166 11
-352 14 l-338 5 197 215 c369 403 374 408 374 433 0 39 -36 77 -73 77 -27 0
-44 -12 -98 -67 -124 -127 -616 -669 -628 -690 -18 -35 -13 -63 18 -94 l29
-29 376 0 375 0 3 -390 3 -390 28 -27 27 -28 710 0 710 0 27 28 28 27 3 390 3
390 375 0 376 0 29 29 c31 31 36 59 18 93 -12 22 -1406 1549 -1489 1631 -37
36 -56 47 -80 47 -24 0 -43 -11 -80 -47z"/>
<path d="M789 2331 l-29 -29 0 -1116 c0 -796 3 -1122 11 -1139 6 -14 22 -30
36 -36 17 -8 232 -11 724 -11 l701 0 29 29 29 29 0 287 c0 299 -4 333 -45 349
-9 3 -86 6 -171 6 -151 0 -156 -1 -179 -25 -14 -13 -25 -31 -25 -40 0 -12 -16
-15 -95 -15 -82 0 -97 2 -102 17 -3 10 -15 28 -26 41 -18 19 -30 22 -104 22
l-83 0 0 803 c-1 615 -3 806 -13 818 -28 36 -51 39 -342 39 l-287 0 -29 -29z"/>
<path d="M1915 2348 c-30 -17 -44 -40 -45 -69 0 -22 801 -2177 831 -2235 21
-41 47 -44 349 -44 285 0 289 0 314 23 19 17 87 187 281 705 140 375 255 694
255 708 0 13 -11 35 -23 48 l-24 24 31 83 c31 82 32 84 69 90 21 3 43 11 48
16 14 14 219 561 219 585 0 11 -13 33 -29 49 l-29 29 -287 0 c-230 0 -291 -3
-314 -15 -26 -13 -50 -73 -272 -664 -134 -358 -247 -645 -250 -638 -4 7 -113
296 -243 642 -181 484 -242 635 -262 653 -25 22 -29 22 -312 22 -197 -1 -293
-4 -307 -12z"/>
<path d="M3903 686 c-59 -19 -104 -49 -152 -101 -67 -72 -85 -123 -86 -235 0
-89 2 -99 34 -158 41 -75 94 -125 170 -161 81 -37 201 -37 282 0 79 37 133 90
171 167 29 59 33 76 33 152 0 71 -4 94 -27 142 -60 129 -164 199 -303 205 -49
2 -96 -2 -122 -11z"/>
</g>
</svg>
