<?xml version="1.0" encoding="iso-8859-1"?>
<!-- Generator: Adobe Illustrator 19.0.0, SVG Export Plug-In . SVG Version: 6.00 Build 0)  -->
<svg version="1.1" id="Layer_1" xmlns="http://www.w3.org/2000/svg" xmlns:xlink="http://www.w3.org/1999/xlink" x="0px" y="0px"
	 viewBox="0 0 498.4 498.4" style="enable-background:new 0 0 498.4 498.4;" xml:space="preserve">
<path style="fill:#5E6664;" d="M2.8,498.4c0-80.8,65.6-147.2,147.2-147.2s147.2,65.6,147.2,147.2"/>
<path style="fill:#FFC114;" d="M28.4,498.4c0-67.2,54.4-121.6,121.6-121.6s121.6,54.4,121.6,121.6"/>
<path style="fill:#2F423F;" d="M151.6,496h145.6c0-80-64.8-145.6-145.6-145.6l0.8,1.6v144H151.6z"/>
<path style="fill:#FCA12A;" d="M151.6,496h119.2c0-64-52.8-120-120-120l0.8,1.6L151.6,496L151.6,496z"/>
<polygon style="fill:#3AC2F2;" points="455.6,496 448.4,496 169.2,248 455.6,248 "/>
<polyline style="fill:#009CC6;" points="455.6,248 455.6,496 448.4,496 324.4,385.6 "/>
<path style="fill:#3AC2F2;" d="M167.6,88.8c0-30.4,21.6-56.8,52.8-56.8h112l27.2-32h-148c-40.8,0-76,36.8-76,76.8v172.8l32-29.6
	V88.8z"/>
<path style="fill:#009CC6;" d="M135.6,80v170.4l32-29.6v-132c0-30.4,21.6-56.8,52.8-56.8h115.2"/>
<g>
	<path style="fill:#5E6664;" d="M375.6,20c0,11.2-8.8,20-20,20h-72.8c-10.4,0-19.2-8.8-19.2-20l0,0c0-11.2,8.8-20,20-20h72.8
		C366.8,0,375.6,8.8,375.6,20L375.6,20z"/>
	<path style="fill:#5E6664;" d="M495.6,177.6c-8,0-6.4,0-9.6,0c-36.8,0-68-3.2-68,16.8s31.2,35.2,68,35.2c2.4,0,0.8,0,8.8-0.8v-51.2
		H495.6z"/>
</g>
<rect x="135.6" y="248" style="fill:#3AC2F2;" width="32" height="152"/>
<polyline style="fill:#009CC6;" points="135.6,248 167.6,248 167.6,400 "/>
<g>
	<path style="fill:#50E28B;" d="M183.6,232c0,8.8-7.2,16-16,16h-34.4c-8.8,0-16-7.2-16-16l0,0c0-8.8,7.2-16,16-16h34.4
		C176.4,216,183.6,223.2,183.6,232L183.6,232z"/>
	<path style="fill:#50E28B;" d="M183.6,408c0,8.8-7.2,16-16,16h-34.4c-8.8,0-16-7.2-16-16l0,0c0-8.8,7.2-16,16-16h34.4
		C176.4,392,183.6,399.2,183.6,408L183.6,408z"/>
</g>
<g>
	<path style="fill:#0AA06E;" d="M135.6,216h32c8.8,0,16,8.8,16,17.6l0,0c0,8.8-6.4,15.2-15.2,15.2"/>
	<path style="fill:#0AA06E;" d="M135.6,392h32c8.8,0,16,6.4,16,15.2l0,0c0,8.8-6.4,16-15.2,16"/>
</g>
<polygon style="fill:#50E28B;" points="495.6,496 455.6,496 455.6,272 495.6,232.8 "/>
<polygon style="fill:#0AA06E;" points="495.6,496 455.6,496 455.6,378.4 495.6,340 "/>
<circle style="fill:#FFC114;" cx="408.4" cy="431.2" r="49.6"/>
<path style="fill:#FCA12A;" d="M443.6,396c19.2,19.2,19.2,50.4,0,70.4s-50.4,19.2-70.4,0"/>
<g>
</g>
<g>
</g>
<g>
</g>
<g>
</g>
<g>
</g>
<g>
</g>
<g>
</g>
<g>
</g>
<g>
</g>
<g>
</g>
<g>
</g>
<g>
</g>
<g>
</g>
<g>
</g>
<g>
</g>
</svg>
